<svg width="30" height="30" viewBox="0 0 30 30" fill="none" xmlns="http://www.w3.org/2000/svg">
<path d="M1.3691 4.8486C0.979453 4.98532 0.774375 5.15622 0.589805 5.50485C0.453086 5.75778 0.432578 5.88083 0.453086 6.32516C0.48043 6.94723 0.685508 7.32321 1.14352 7.56247L1.43063 7.71969L14.8564 7.7402C23.7089 7.74704 28.3642 7.73337 28.5351 7.68551C29.1914 7.50778 29.5537 7.00192 29.5537 6.24997C29.5537 5.50485 29.1982 4.99899 28.542 4.81442C28.3779 4.7734 23.6953 4.74606 14.9658 4.74606C3.70016 4.7529 1.59469 4.76657 1.3691 4.8486Z" fill="white"/>
<path d="M1.3691 13.5986C0.979453 13.7353 0.774375 13.9062 0.589805 14.2548C0.453086 14.5078 0.432578 14.6308 0.453086 15.0752C0.48043 15.6972 0.685508 16.0732 1.14352 16.3125L1.43063 16.4697L12.6621 16.4902C20.0654 16.497 23.9892 16.4834 24.1533 16.4355C24.8164 16.2578 25.1787 15.7519 25.1787 15C25.1787 14.2548 24.8232 13.749 24.167 13.5644C24.0097 13.5234 20.038 13.4961 12.7783 13.4961C3.39254 13.5029 1.59469 13.5166 1.3691 13.5986Z" fill="white"/>
<path d="M1.3691 22.3486C0.979453 22.4853 0.774375 22.6562 0.589805 23.0048C0.453086 23.2578 0.432578 23.3808 0.453086 23.8252C0.48043 24.4472 0.685508 24.8232 1.14352 25.0625L1.43063 25.2197L8.28707 25.2402C12.7783 25.247 15.2392 25.2334 15.4033 25.1855C16.0664 25.0078 16.4287 24.5019 16.4287 23.75C16.4287 23.0048 16.0732 22.499 15.417 22.3144C15.2597 22.2734 12.7373 22.2461 8.40328 22.2461C2.77047 22.2529 1.58785 22.2666 1.3691 22.3486Z" fill="white"/>
</svg>
